<svg width="184" height="64" viewBox="0 0 184 64" fill="none" xmlns="http://www.w3.org/2000/svg">
<path d="M53.1526 12.1949C53.0042 12.2373 52.6544 12.2797 52.3789 12.2903C51.2766 12.3115 47.7154 13.2124 46.4224 13.7847C46.3058 13.8377 45.9772 13.9755 45.6805 14.0921C44.9068 14.3889 42.8612 15.3639 42.5433 15.5971C42.3949 15.6925 42.1511 15.8197 41.9921 15.8515C41.8331 15.8939 41.706 15.9681 41.706 16.0105C41.706 16.0529 41.6212 16.1164 41.5258 16.1588C41.4198 16.1906 41.1972 16.3178 41.017 16.4344C40.8475 16.551 40.5931 16.6888 40.4553 16.7524C40.3175 16.8054 40.0526 16.9749 39.8618 17.1233C39.671 17.2717 39.4802 17.3883 39.4484 17.3883C39.2047 17.3883 35.7919 19.8684 34.8274 20.7375C34.0431 21.4476 32.5911 22.995 32.5911 23.1222C32.5911 23.154 32.4957 23.3024 32.3685 23.4402C32.0505 23.8005 31.0966 25.3055 30.8211 25.8673C30.7045 26.1322 30.4713 26.5986 30.3229 26.9165C29.8036 27.9764 29.5916 29.1317 29.6446 30.4777C29.7082 31.8025 30.005 32.4915 30.9059 33.403C31.8492 34.3462 32.856 34.7596 34.4458 34.8444C35.5375 34.8974 36.3218 34.8126 37.4135 34.5052C37.7632 34.4098 38.2296 34.2932 38.4522 34.2296C38.6747 34.1767 38.9291 34.0919 39.0351 34.0283C39.2789 33.9011 40.6461 33.2864 40.7097 33.2864C40.9005 33.2864 43.1368 31.9191 45.2035 30.5413C46.5708 29.6298 47.7684 28.8349 47.8744 28.7819C47.9698 28.7183 48.6163 28.3368 49.3052 27.9234C49.9941 27.5207 50.842 27.0331 51.1918 26.8529C51.5416 26.6728 52.0397 26.4078 52.3047 26.27C52.5696 26.1428 53.0678 25.9097 53.4175 25.7825C53.7673 25.6447 54.2018 25.4645 54.3714 25.3903C54.5516 25.3161 54.806 25.1995 54.9543 25.136C55.3677 24.9664 56.3004 24.7968 57.2119 24.7332C59.1832 24.606 60.5611 25.4751 61.2712 27.2981C61.4408 27.7326 61.4725 28.093 61.4725 29.3648C61.4725 30.9123 61.3348 31.7601 60.9214 32.7564C60.8366 32.9578 60.72 33.244 60.6564 33.3924C60.1265 34.6642 59.0348 36.4872 57.7842 38.1406C56.5971 39.7304 54.0429 42.3695 52.3577 43.7579C51.7747 44.2454 51.1282 44.7754 50.9268 44.9449C50.4817 45.3159 49.9623 45.6869 49.39 46.0684C49.1568 46.2168 48.7753 46.4712 48.5421 46.6407C47.885 47.0859 46.1362 48.0186 45.1505 48.4425C44.8644 48.5697 44.4722 48.7393 44.2814 48.8241C44.1013 48.9089 43.8575 48.9725 43.7409 48.9725C43.6349 48.9725 43.3912 49.0255 43.2004 49.089C42.5115 49.3328 41.8119 48.8665 41.8119 48.1564C41.8119 47.2873 42.2253 46.7361 44.8326 44.15C47.6518 41.352 47.9592 40.9386 47.9592 39.8788C47.9592 38.7871 47.4399 38.0452 46.274 37.4517C45.7653 37.1867 45.5745 37.1549 44.6842 37.1549C43.6455 37.1549 43.0414 37.3033 42.2889 37.759C42.1193 37.865 41.8543 38.0028 41.706 38.077C41.5576 38.1512 41.4198 38.236 41.388 38.2678C41.3562 38.2996 41.1442 38.4585 40.9111 38.6387C40.3493 39.0627 39.3636 40.0695 38.8019 40.8009C38.4098 41.3096 38.1236 41.7865 37.4559 43.0372C36.9047 44.0759 36.4066 46.0048 36.4066 47.1283C36.4066 49.407 37.5937 51.23 39.4272 51.7493C39.9784 51.9083 42.2253 51.9083 42.999 51.7599C43.7621 51.6009 45.7547 50.9862 45.8818 50.8696C45.9454 50.8166 46.0514 50.7742 46.1362 50.7742C46.4118 50.7742 49.5596 49.1738 50.6407 48.4743C50.8844 48.3153 51.16 48.1352 51.266 48.0716C51.3614 48.0186 51.8595 47.7112 52.3789 47.3933C52.8876 47.0753 53.3327 46.7785 53.3645 46.7467C53.3963 46.7043 53.7567 46.4394 54.1594 46.1638C54.5728 45.8776 55.0497 45.5491 55.2193 45.4325C55.3995 45.3053 55.8976 44.9238 56.3322 44.574C59.0878 42.3801 61.5255 40.0377 62.9458 38.2148C63.1789 37.9286 63.3909 37.6636 63.4227 37.6318C63.5075 37.5682 64.2282 36.5296 64.7263 35.7453C64.9489 35.4167 65.2881 34.8338 65.4789 34.4522C65.6802 34.0707 65.9558 33.5513 66.0936 33.2864C66.2314 33.0214 66.5281 32.3325 66.7613 31.7496C66.9839 31.1666 67.2064 30.5943 67.2488 30.4777C67.5456 29.7252 68.0014 27.7856 68.2027 26.3972C68.4253 24.8286 68.2557 22.2531 67.8212 20.8329C67.641 20.2499 67.5986 20.144 67.2064 19.2961C66.3586 17.4731 65.0019 15.8197 63.4439 14.7386C63.2319 14.5902 62.967 14.3889 62.8504 14.2723C62.4688 13.9331 60.5293 13.064 59.3952 12.7355C58.7911 12.5553 57.8902 12.3645 57.392 12.2903C56.2474 12.1419 53.5023 12.0677 53.1526 12.1949Z" fill="white"/>
<path d="M150.862 20.7685C150.83 20.7897 150.343 20.8851 149.76 20.9805C149.177 21.0653 148.223 21.2243 147.64 21.3302L146.58 21.5104V31.2612C146.58 41.8493 146.559 41.4042 147.184 42.729C147.396 43.1848 147.693 43.5769 148.149 43.9903C149.272 45.0184 150.322 45.3363 152.558 45.3469C154.466 45.3469 154.391 45.4211 154.349 43.6617L154.317 42.3899L153.501 42.3157C152.049 42.1885 151.35 41.6056 151.191 40.3973C151.148 40.037 151.116 35.5007 151.127 30.3285C151.138 21.3726 151.116 20.5141 150.862 20.7685Z" fill="white"/>
<path d="M121.515 20.9803C119.162 21.33 118.378 21.4784 118.283 21.595C118.209 21.6798 118.198 25.0608 118.23 31.526C118.283 40.5561 118.304 41.3722 118.474 41.8067C118.876 42.8348 119.088 43.1952 119.629 43.7357C120.742 44.8486 122.162 45.3043 124.494 45.3043C125.787 45.3043 125.967 45.2831 126.052 45.1135C126.158 44.9121 126.211 43.068 126.126 42.644C126.062 42.3791 126.02 42.3685 125.225 42.3049C124.218 42.2413 123.625 41.9021 123.211 41.1708L122.946 40.6939L122.914 35.2037C122.893 31.1126 122.914 29.6712 123.01 29.5546C123.105 29.438 123.466 29.4062 124.6 29.4062C126.348 29.4062 126.2 29.5758 126.158 27.5515L126.126 26.1736L124.642 26.1206C123.826 26.0888 123.095 26.0253 123.031 25.9829C122.925 25.9193 122.893 25.2727 122.893 23.3544V20.8213L122.66 20.8319C122.522 20.8425 122.014 20.9061 121.515 20.9803Z" fill="white"/>
<path d="M84.7884 25.7598C83.9935 25.834 82.0858 26.2898 81.5028 26.5441C81.3862 26.5971 81.1743 26.6713 81.0259 26.7137C80.5595 26.8409 79.0121 27.6146 79.0121 27.7206C79.0121 27.7736 79.1075 28.0174 79.2135 28.2717C79.913 29.8085 80.178 30.3597 80.231 30.3597C80.2628 30.3597 80.3688 30.3173 80.4748 30.2643C81.0153 29.9887 81.6724 29.7237 82.1917 29.5648C82.5097 29.4694 82.8913 29.3422 83.0396 29.2892C83.6332 29.0772 85.2124 28.9712 85.9437 29.0878C87.3851 29.321 87.9151 29.9887 87.9998 31.6951C88.0422 32.6384 88.0422 32.6596 87.7985 32.7232C87.6607 32.7656 86.6856 32.7974 85.6363 32.7974C83.1138 32.7974 82.3401 32.9458 80.7079 33.7407C79.3089 34.419 78.2702 35.7014 77.7721 37.3548C77.5177 38.2345 77.5495 39.8773 77.8357 40.7464C78.7896 43.6293 81.0577 45.3144 84.2161 45.484C87.0884 45.643 90.0454 44.7845 91.9426 43.2583L92.6315 42.6966L92.6633 37.0899C92.6951 30.5928 92.6845 30.3703 91.9002 28.7805C91.5504 28.0598 90.374 26.9151 89.6426 26.5971C89.3035 26.4381 88.9325 26.2792 88.8159 26.2262C88.021 25.8764 86.0073 25.6432 84.7884 25.7598ZM87.9151 35.977C87.9786 36.0618 88.021 37.323 88.021 38.8492C88.021 41.8593 88.0634 41.6685 87.2791 42.0818C86.9824 42.2408 86.6538 42.2726 85.6257 42.2832H84.3433L83.8134 41.9229C83.5272 41.7321 83.188 41.4141 83.0714 41.2339C82.2871 40.0893 82.3401 38.0437 83.1668 37.0369C83.4106 36.7295 84.3433 36.083 84.5129 36.083C84.6189 36.083 84.7354 36.0406 84.799 35.9876C84.9474 35.8286 85.435 35.7862 86.675 35.8074C87.5653 35.818 87.8409 35.8498 87.9151 35.977Z" fill="white"/>
<path d="M111.232 26.0161C109.123 26.5143 107.438 27.4152 105.742 28.9626L105.297 29.3653V37.1024C105.297 41.3525 105.297 44.9136 105.297 45.0196C105.297 45.1892 105.456 45.1998 107.607 45.1786L109.907 45.1468L109.939 37.7595L109.96 30.3828L110.363 30.0648C110.84 29.6833 111.073 29.5667 111.688 29.3547C112.419 29.1109 113.564 28.9944 114.422 29.0897C114.846 29.1321 115.249 29.1533 115.313 29.1215C115.387 29.1003 115.578 28.74 115.747 28.316C115.906 27.8921 116.161 27.341 116.288 27.0866C116.637 26.4189 116.606 26.2493 116.139 26.1433C115.917 26.0903 115.514 25.9949 115.228 25.9313C114.475 25.7406 112.175 25.7936 111.232 26.0161Z" fill="white"/>
<path d="M134.283 26.0356C133.933 26.0885 133.605 26.1839 133.552 26.2369C133.488 26.2899 133.382 26.3323 133.297 26.3323C133.212 26.3323 132.831 26.4807 132.46 26.6715C131.644 27.0742 130.393 28.2295 129.863 29.088C129.397 29.8405 128.856 30.964 128.772 31.3667C128.729 31.5363 128.666 31.7801 128.613 31.8966C128.57 32.0132 128.443 32.469 128.337 32.9035C128.051 34.0482 128.051 37.7153 128.326 38.7858C128.581 39.7715 129.153 41.2765 129.259 41.2765C129.312 41.2765 129.355 41.3295 129.355 41.3931C129.355 41.7958 130.616 43.3962 131.506 44.117C131.898 44.4349 132.778 44.8907 133.435 45.1132C134.145 45.357 135.714 45.622 136.413 45.622C137.918 45.622 140.632 44.9754 141.532 44.4031C141.744 44.2759 142.031 44.1276 142.179 44.0852C142.497 43.9898 143.196 43.5552 143.281 43.4068C143.377 43.2585 142.19 40.8526 142.031 40.8526C141.956 40.8526 141.766 40.9479 141.617 41.0645C141.469 41.1811 141.289 41.2765 141.204 41.2765C141.13 41.2765 140.971 41.3401 140.854 41.4249C140.738 41.4991 140.186 41.7216 139.635 41.9124C138.692 42.241 138.533 42.2622 137.145 42.2728C135.83 42.2728 135.608 42.2516 135.184 42.0502C133.7 41.3401 132.852 39.5489 132.852 37.1324C132.852 36.6131 132.863 36.1785 132.884 36.1679C132.895 36.1467 135.247 36.1149 138.098 36.0831L143.292 36.0301L143.26 34.9703C143.196 32.8929 142.645 30.0949 142.168 29.4589C142.126 29.3953 141.978 29.1304 141.84 28.8654C141.267 27.7313 140.059 26.7563 138.628 26.2793C137.579 25.919 135.661 25.813 134.283 26.0356ZM136.562 29.4059C137.007 29.5225 137.939 30.275 137.939 30.5082C137.939 30.5718 138.014 30.7626 138.098 30.9216C138.342 31.3985 138.533 32.9671 138.363 33.1685C138.257 33.3063 137.844 33.3275 135.703 33.3275H133.17L133.106 33.0625C132.969 32.522 133.34 31.0699 133.764 30.5082C134.23 29.8829 134.643 29.5649 135.258 29.3847C135.597 29.2894 135.926 29.2258 136 29.247C136.064 29.2682 136.318 29.3423 136.562 29.4059Z" fill="white"/>
<path d="M97.7742 18.5744C96.9687 18.9877 96.7249 19.1891 96.3751 19.7084C96.036 20.2278 96.0254 20.2702 96.0254 21.3512V22.4747L96.4281 23.0258C96.9051 23.6723 97.223 23.9055 97.9226 24.1493C98.8658 24.4566 99.6819 24.3401 100.625 23.7465C101.759 23.0258 102.151 21.1816 101.463 19.825C101.219 19.3481 101.007 19.1255 100.371 18.7227C99.7985 18.3518 98.3465 18.267 97.7742 18.5744Z" fill="white"/>
<path d="M100.371 26.2266C100.201 26.2795 99.724 26.3749 99.3107 26.4279C98.9079 26.4809 98.166 26.5869 97.6679 26.6611C97.1697 26.7247 96.7352 26.8201 96.6822 26.8519C96.5868 26.9367 96.5762 44.9439 96.661 45.1029C96.7034 45.1558 97.6467 45.1982 98.8867 45.1982C101.049 45.1982 101.059 45.1982 101.112 44.9545C101.144 44.8273 101.155 40.5454 101.144 35.4474C101.112 26.2584 101.112 26.1736 100.9 26.1524C100.784 26.1418 100.551 26.1736 100.371 26.2266Z" fill="white"/>
</svg>
