<svg width="184" height="64" viewBox="0 0 184 64" fill="none" xmlns="http://www.w3.org/2000/svg">
<mask id="mask0_19_855" style="mask-type:luminance" maskUnits="userSpaceOnUse" x="47" y="7" width="90" height="50">
<path d="M136.075 7H47V57H136.075V7Z" fill="white"/>
</mask>
<g mask="url(#mask0_19_855)">
<path d="M134.561 7.33133C133.988 7.51136 133.01 7.81414 132.392 8.00645C131.774 8.19876 131.177 8.38288 131.066 8.41971C130.87 8.48108 130.87 8.48108 130.894 8.63248C131.14 10.0031 131.488 13.2642 131.426 13.6488C131.361 14.1071 131.156 14.2012 130.477 14.0948C129.9 14.0048 128.902 14.0334 128.349 14.1562C126.84 14.4917 125.399 15.3509 124.45 16.4843C123.579 17.5277 123.002 18.6693 122.654 20.0236C122.425 20.936 122.355 21.5662 122.38 22.5441C122.4 23.432 122.453 23.7797 122.674 24.5572C123.272 26.6398 124.659 27.8428 126.876 28.211C127.732 28.3542 128.484 28.3747 130.551 28.301C133.939 28.1783 134.786 28.1537 135.432 28.1537H136.074V27.9573C136.074 27.8509 136.038 27.0817 135.993 26.2511C135.862 23.7552 135.833 22.0899 135.808 15.4082C135.796 11.8976 135.776 8.5711 135.759 8.01054C135.739 7.12266 135.727 6.99991 135.669 7.004C135.633 7.004 135.133 7.15539 134.561 7.33133ZM130.514 15.3796C130.964 15.5555 131.263 15.9483 131.377 16.513C131.455 16.8853 131.451 25.1709 131.377 25.5146C131.299 25.8583 131.107 26.2306 130.907 26.427C130.317 26.9917 129.049 27.1431 128.251 26.738C127.756 26.4884 127.433 26.0547 127.318 25.486C126.921 23.5302 126.901 18.3542 127.281 17.1472C127.572 16.2306 128.272 15.5473 129.139 15.3305C129.503 15.2364 130.215 15.265 130.514 15.3796Z" fill="white"/>
<path d="M84.3356 9.20914C82.7767 9.38918 81.0337 9.97019 79.708 10.7599C79.0901 11.1241 78.5009 11.5824 77.9567 12.1102C76.4592 13.575 75.5918 15.2567 75.2031 17.4334C75.1171 17.9162 75.0844 19.4056 75.1499 19.9825C75.3831 22.1429 76.2792 24.1478 77.7112 25.6945C77.8422 25.8418 78.1572 26.1323 78.4027 26.345C79.708 27.4661 81.2955 28.1781 83.1368 28.4645C83.7055 28.5545 85.1826 28.5668 85.8291 28.4891C86.0664 28.4604 86.7211 28.3336 87.2857 28.2149C87.8463 28.0922 88.4846 27.9735 88.6973 27.9449C89.6016 27.8344 90.4731 28.0349 91.185 28.5218L91.4346 28.6896V23.8737C91.4346 19.3074 91.4305 19.0619 91.3651 19.0824C91.2955 19.1028 89.2088 19.9416 87.6908 20.5635C87.2857 20.7272 86.8724 20.895 86.7742 20.9359C86.6024 21.0054 86.5983 21.0095 86.6229 21.1527C86.7006 21.5864 86.942 23.9023 86.9829 24.5815C87.0402 25.5594 87.0034 25.9072 86.7906 26.3409C86.541 26.8442 86.0664 27.1838 85.4117 27.3148C85.023 27.3925 84.262 27.3925 83.906 27.3188C83.0181 27.1306 82.2407 26.6151 81.5697 25.7722C80.649 24.6184 80.1008 23.1372 79.8266 21.0954C79.7284 20.3426 79.7284 18.2927 79.8266 17.5152C80.113 15.2894 80.69 13.8982 81.8233 12.7076C82.8708 11.611 84.0819 11.0259 85.4731 10.9441C86.451 10.8827 87.2366 11.1323 87.6294 11.6315C87.8954 11.9629 87.9731 12.2247 87.9731 12.7485C87.969 13.2272 87.9895 13.1576 87.6008 14.2215C87.5107 14.467 87.4944 14.5774 87.4944 14.9784C87.4903 15.3999 87.5026 15.4858 87.613 15.8008C87.834 16.431 88.2759 16.9752 88.7464 17.2043C89.1229 17.3884 89.4747 17.4539 89.8103 17.4007C90.4649 17.2984 91.0214 16.8688 91.3528 16.1977C91.5656 15.7599 91.6392 15.4203 91.6679 14.7125C91.7088 13.6527 91.4551 12.7771 90.8291 11.8279C89.8225 10.3017 87.6008 9.23369 85.3381 9.18868C84.9657 9.1805 84.5157 9.18868 84.3356 9.20914Z" fill="white"/>
<path d="M47.2041 14.5286V15.0196H48.2066H49.209V17.8429V20.6661H49.8023H50.3956V17.8429V15.0196L51.4308 15.0115L52.4619 14.9992L52.4742 14.5164L52.4864 14.0376H49.8432H47.2041V14.5286Z" fill="white"/>
<path d="M55.8369 17.3519V20.6661H56.4302H57.0235V19.2136V17.761H58.476H59.9286V19.2136V20.6661H60.5219H61.1151V17.3519V14.0376H60.5219H59.9286V15.4083V16.779H58.476H57.0235V15.4083V14.0376H56.4302H55.8369V17.3519Z" fill="white"/>
<path d="M64.9619 17.3519V20.6661H67.1305H69.2991V20.1956V19.725H67.7238H66.1485V18.7226V17.7201H67.4987H68.849V17.2496V16.779H67.4987H66.1485V15.8993V15.0196H67.7033H69.2581V14.5286V14.0376H67.11H64.9619V17.3519Z" fill="white"/>
<path d="M99.23 14.1889C97.847 14.3567 96.73 14.7822 95.6293 15.5596C95.1752 15.8788 94.3118 16.7257 93.9804 17.1799C93.2684 18.1455 92.8184 19.2544 92.6383 20.4696C92.5483 21.0915 92.577 22.184 92.7038 22.7732C93.2112 25.1586 94.8724 27.1226 97.0941 27.9655C97.6997 28.1946 98.1171 28.301 98.739 28.3828C99.3855 28.4688 100.441 28.4401 101.03 28.3174C103.641 27.7773 105.928 25.666 106.693 23.0923C106.902 22.3886 106.959 21.9508 106.959 21.1161C106.959 20.0645 106.812 19.3362 106.403 18.3665C105.302 15.7724 102.773 14.1357 99.9133 14.1644C99.6064 14.1684 99.2995 14.1807 99.23 14.1889ZM102.782 15.891C102.945 15.9647 103.178 16.1243 103.301 16.2347C103.776 16.6684 103.911 17.1594 103.743 17.8428C103.637 18.2724 102.426 20.7642 101.37 22.7282C100.322 24.6717 100.286 24.729 99.3691 25.8542L98.7676 26.5866L98.4771 26.693C98.3175 26.7544 98.0639 26.8198 97.9125 26.8444C97.1637 26.9671 96.2513 26.558 95.9485 25.9688C95.7357 25.5555 95.7807 24.8149 96.0876 23.837C96.239 23.3501 96.7341 22.4336 98.3626 19.6267C99.811 17.1267 99.8396 17.0817 100.228 16.7012C100.691 16.2552 100.989 16.0261 101.321 15.8706C101.804 15.6455 102.282 15.6496 102.782 15.891Z" fill="white"/>
<path d="M113.939 14.1886C113.574 14.2255 112.895 14.3769 112.486 14.5078C111.901 14.696 110.993 15.1502 110.502 15.498C109.916 15.9153 108.988 16.8605 108.624 17.4088C107.711 18.7836 107.302 20.2852 107.396 21.9137C107.502 23.6854 108.366 25.4325 109.745 26.6477C110.845 27.6175 112.196 28.2271 113.628 28.403C114.192 28.4726 115.272 28.4317 115.8 28.3212C117.883 27.8834 119.761 26.5045 120.845 24.6101C121.84 22.8711 122.044 20.7557 121.398 18.89C120.518 16.3368 118.394 14.5733 115.78 14.2214C115.391 14.1682 114.311 14.1477 113.939 14.1886ZM117.056 15.678C117.642 15.8008 118.214 16.2467 118.398 16.7173C118.505 16.9996 118.525 17.4947 118.443 17.8016C118.276 18.403 117.003 21.1199 115.747 23.5585C115.191 24.6346 115.125 24.741 114.307 25.813L113.714 26.5945L113.427 26.7173C112.846 26.9628 112.322 26.9832 111.79 26.7828C111.242 26.5782 110.915 26.2836 110.768 25.858C110.616 25.4366 110.759 24.3359 111.062 23.579C111.226 23.1698 112.106 21.5127 113.648 18.7222L114.573 17.0446L114.998 16.6191C115.477 16.1445 115.919 15.8335 116.287 15.7189C116.578 15.6248 116.758 15.6166 117.056 15.678Z" fill="white"/>
<path d="M71.1813 22.9164C69.7533 23.3419 68.5422 23.702 68.4931 23.7143C68.4113 23.7347 68.4031 23.7552 68.4235 23.9311C68.5054 24.7699 68.6936 27.3272 68.7263 28.0801C68.7795 29.283 68.7795 40.6783 68.7263 41.8935C68.6854 42.8223 68.5831 44.7086 68.5422 45.2241L68.5217 45.5023H71.4268C74.2582 45.5023 74.3319 45.5023 74.3319 45.4246C74.3319 45.3796 74.2787 44.6145 74.2091 43.7143C74.1437 42.8182 74.07 41.6971 74.0455 41.2266C74.0209 40.6987 74.0046 37.1267 74.0046 31.9794C74.0046 27.0285 73.9882 23.391 73.9636 23.1005C73.9023 22.3027 73.8777 22.139 73.8286 22.1431C73.8 22.1431 72.6093 22.495 71.1813 22.9164Z" fill="white"/>
<path d="M58.19 22.2248C56.9012 22.3108 55.4486 22.7036 54.0206 23.3419C52.5476 24.0006 51.4838 24.7248 50.4323 25.7764C48.5133 27.6995 47.3553 30.1585 47.0403 32.9613C46.9789 33.526 46.9912 35.0072 47.0648 35.6414C47.4453 38.9883 49.1597 42.0653 51.7416 44.0456C53.9511 45.7396 56.762 46.3656 60.0517 45.9073C60.776 45.805 61.4633 45.67 62.0444 45.5104C62.9323 45.2649 63.1041 45.2363 63.7547 45.2363C64.4666 45.2363 64.618 45.2813 65.3177 45.6782C65.8946 46.0055 66.1606 46.026 66.3201 45.7559C66.4715 45.4982 66.4797 45.2363 66.4674 40.2036C66.4552 35.5513 66.4511 35.269 66.3733 34.8517C66.3324 34.6103 66.2792 34.4139 66.2588 34.4139C66.2383 34.4139 65.5755 34.688 64.7817 35.0235C63.992 35.359 62.8872 35.8255 62.3226 36.0628C61.762 36.3001 61.1401 36.562 60.9478 36.6438L60.5959 36.7952L60.6491 37.0857C60.6737 37.2494 60.7269 37.6749 60.7637 38.035C60.8005 38.395 60.8782 39.1315 60.9314 39.6716C61.0706 40.981 61.1074 42.3803 61.0174 42.8018C60.8373 43.661 60.289 44.2338 59.3766 44.5202C59.0084 44.6348 58.0059 44.6798 57.5272 44.6021C56.4593 44.4302 55.5877 43.8942 54.884 42.9736C54.2579 42.1594 53.4683 40.5554 53.0427 39.2216C51.9789 35.9114 52.1794 32.3435 53.6319 28.6242C53.8774 27.9982 54.1516 27.4703 54.4666 27.0284C55.4691 25.6168 56.9625 24.6921 58.6278 24.4466C59.1843 24.3648 60.2481 24.3893 60.6614 24.4916C61.3856 24.6675 61.9298 25.179 62.1467 25.8787C62.2162 26.1037 62.2367 26.2674 62.2367 26.5988C62.2367 27.0734 62.1835 27.3108 61.938 27.9654C61.7048 28.5833 61.6475 28.8615 61.6475 29.3443C61.6475 30.7846 62.5395 32.0612 63.7138 32.3067C64.0779 32.3844 64.262 32.3844 64.5935 32.3026C65.3627 32.1225 66.0665 31.4065 66.3692 30.4859C66.5493 29.9335 66.6106 29.4098 66.5861 28.6487C66.5534 27.6504 66.3938 27.0039 65.9683 26.1283C65.6696 25.5145 65.3136 25.0276 64.7776 24.4916C64.2702 23.9883 63.8815 23.6937 63.2269 23.3296C62.1139 22.7117 60.8823 22.3353 59.6221 22.2248C59.082 22.1757 58.8651 22.1757 58.19 22.2248Z" fill="white"/>
<path d="M82.4529 29.7496C81.3236 29.8723 80.3089 30.1669 79.2614 30.6743C77.1051 31.7177 76.0576 33.1907 76.1436 35.0483C76.1845 35.883 76.3891 36.4231 76.8391 36.8772C77.5184 37.5646 78.5576 37.7242 79.4373 37.2823C80.2025 36.8977 80.7344 36.2267 80.8981 35.4452C80.984 35.0319 80.9758 34.3936 80.8776 33.8208C80.8326 33.5589 80.7958 33.1988 80.7958 33.027C80.7958 31.1694 83.0134 30.2283 84.3391 31.5295C84.867 32.0491 85.0961 32.7856 85.5216 35.3388C85.5585 35.5638 85.4643 35.883 85.3048 36.0589C85.1125 36.2717 84.8711 36.3903 84.3964 36.5008C83.2753 36.7627 82.6943 36.9263 82.2688 37.0859C79.4905 38.1457 78.0257 39.1277 77.0437 40.5925C76.5486 41.329 76.3359 41.9018 76.3072 42.6015C76.2786 43.2029 76.3522 43.563 76.6141 44.0826C76.7655 44.3895 76.8637 44.5245 77.1501 44.8069C77.547 45.1997 77.8948 45.4206 78.4635 45.6375C79.3146 45.9689 79.9324 46.0589 81.0576 46.0221C81.6305 46.0016 82.0355 45.9648 82.5756 45.8748C84.1632 45.617 84.6174 45.5884 88.2139 45.5556L91.0658 45.5311V45.4042C91.0658 45.3347 91.0208 44.6309 90.9635 43.8453C90.7999 41.5295 90.7058 39.9132 90.6567 38.7103C90.5175 35.1342 90.3743 34.099 89.8588 32.9943C89.2655 31.7259 88.2098 30.7439 86.9373 30.2815C86.2745 30.0401 85.3007 29.8355 84.4169 29.7496C83.9136 29.7046 82.8907 29.7046 82.4529 29.7496ZM85.1943 37.2455C85.4603 37.3641 85.538 37.7815 85.5421 39.0663C85.5421 39.59 85.5585 39.9378 85.583 39.946C85.6198 39.9583 85.5421 41.3085 85.4766 41.779C85.4316 42.1187 85.2884 42.6587 85.1943 42.8429C84.9938 43.2357 84.5683 43.6489 84.155 43.8494C83.8113 44.0172 83.5413 44.0049 83.1362 43.8003C82.5061 43.4812 82.0724 42.9002 81.8555 42.0859C81.7246 41.6031 81.7246 40.7479 81.8555 40.2529C82.1828 38.9885 82.9275 38.0475 83.9995 37.5237C84.6092 37.2291 84.9733 37.1432 85.1943 37.2455Z" fill="white"/>
<path d="M104.14 29.9742C103.678 30.0561 103.076 30.232 102.434 30.4693C101.902 30.6657 101.448 30.858 99.4632 31.7173C99.2054 31.8277 98.9599 31.9259 98.9108 31.93C98.8331 31.9382 98.8167 31.885 98.6694 31.0422C98.5876 30.5512 98.5099 30.142 98.5017 30.1338C98.4976 30.1256 98.2603 30.1829 97.982 30.2606C97.6997 30.3343 96.9837 30.5307 96.3863 30.6903C95.7889 30.8498 94.8601 31.1158 94.32 31.2754C93.2275 31.5986 93.2153 31.6068 93.068 31.9955C92.9329 32.3392 92.9534 32.6256 93.1743 33.5953L93.3667 34.4341L93.4076 36.3163C93.4649 39.0209 93.4649 41.8032 93.4076 42.5561C93.3421 43.3621 93.2194 44.3728 93.113 44.9497C93.068 45.1952 93.0311 45.4325 93.0311 45.4693C93.0311 45.5389 93.2071 45.543 96.1613 45.543C97.8838 45.543 99.2914 45.5307 99.2914 45.5143C99.2914 45.5021 99.2136 45.2566 99.1236 44.9742L98.9559 44.4587L98.919 43.2926C98.8536 40.9931 98.7963 37.8016 98.7881 36.1526L98.7799 34.471L98.9313 34.1682C99.2177 33.5872 99.7169 33.0962 100.224 32.8957C100.408 32.8179 100.539 32.8016 100.846 32.7975C101.202 32.7975 101.259 32.8097 101.517 32.9325C102.012 33.1657 102.507 33.6322 102.667 34.025C102.716 34.1354 102.749 34.475 102.79 35.2484C102.986 38.8899 102.986 41.2836 102.786 43.2926C102.732 43.8367 102.569 45.0233 102.495 45.3875L102.475 45.5021H105.588C108.539 45.5021 108.706 45.498 108.686 45.4284C108.457 44.651 108.252 43.3376 108.17 42.0855C108.084 40.7885 108.166 35.1133 108.277 34.5978C108.539 33.3662 109.758 32.5683 110.957 32.8343C111.304 32.912 111.693 33.1412 111.869 33.3703C112.323 33.9677 112.368 34.475 112.364 39.3441C112.364 42.1755 112.356 42.6011 112.291 43.1289C112.201 43.8449 112.053 44.651 111.922 45.1624L111.824 45.543H114.823H117.827V45.4243C117.827 45.3588 117.79 44.4137 117.745 43.3253C117.593 39.5773 117.577 39.0904 117.54 36.3163L117.503 33.534L117.614 33.4153C118.035 32.9693 118.931 32.6993 119.606 32.8138C120.306 32.9366 120.732 33.3539 120.92 34.0945C120.993 34.3932 121.059 37.016 121.067 40.1011C121.075 42.5315 121.01 43.3662 120.662 45.3711L120.638 45.5021H123.751H126.861L126.804 45.2852C126.595 44.4955 126.411 43.2312 126.333 42.0446C126.284 41.3163 126.304 38.5626 126.374 35.723C126.403 34.5773 126.403 34.5528 126.513 34.295C126.873 33.4399 127.479 32.9325 128.277 32.8179C128.948 32.7238 129.623 32.9039 129.95 33.268C130.265 33.6158 130.404 34.025 130.466 34.7942C130.527 35.5471 130.564 41.7173 130.511 42.4333C130.437 43.4685 130.265 44.5651 130.081 45.187C130.048 45.3016 130.02 45.4202 130.02 45.4489C130.02 45.4939 130.568 45.5021 133.048 45.5021H136.075V45.4039C136.075 45.3466 136.039 44.9006 135.994 44.4096C135.76 41.7909 135.752 41.5822 135.707 37.6665C135.65 32.7156 135.633 32.5151 135.253 31.7214C134.889 30.9644 134.259 30.4243 133.432 30.1584C132.753 29.9415 132.205 29.9169 131.206 30.0602C129.643 30.2852 128.399 30.8703 126.975 32.0569L126.411 32.5274L126.178 32.2042C125.224 30.8703 124.173 30.1174 123.043 29.9538C121.738 29.7696 120.372 30.2484 117.741 31.8196C117.499 31.9628 117.286 32.0814 117.266 32.0814C117.246 32.0814 117.209 32.016 117.184 31.9382C117.102 31.6723 116.836 31.2549 116.57 30.9726C115.932 30.2975 115.118 29.9824 114.021 29.9824C113.191 29.9824 112.434 30.1133 111.591 30.4039C110.552 30.7639 109.856 31.1813 108.727 32.1305C108.412 32.3965 108.146 32.6133 108.133 32.6133C108.121 32.6133 108.035 32.4538 107.949 32.2615C107.606 31.5127 107.025 30.7885 106.476 30.4284C105.809 29.9865 104.962 29.8228 104.14 29.9742Z" fill="white"/>
<path d="M92.7236 48.1049C91.8152 48.2849 91.0992 49.001 90.825 50.0034C90.6409 50.6622 90.6164 51.8488 90.7637 52.573C91.0869 54.1442 92.2776 54.9911 93.947 54.8316C94.7244 54.7538 95.334 54.5165 95.7555 54.1155L95.9764 53.9069V52.6303V51.3537H94.708H93.4396V51.8037V52.2538H94.1147H94.7898V52.8839V53.5141L94.6794 53.5877C94.4543 53.7391 94.2456 53.8087 93.8856 53.8578C93.2637 53.9396 92.7767 53.7964 92.433 53.4322C92.1589 53.1417 92.028 52.8676 91.9216 52.3561C91.8438 51.992 91.8561 50.7563 91.942 50.3717C92.118 49.5697 92.4903 49.1483 93.1368 49.0214C93.4355 48.9641 93.8897 49.0173 94.1311 49.1401C94.4216 49.2915 94.6835 49.6638 94.7694 50.0362L94.798 50.1671H95.3709H95.9437L95.915 49.9707C95.8087 49.2465 95.3504 48.6041 94.7366 48.3095C94.2006 48.0517 93.3987 47.9699 92.7236 48.1049Z" fill="white"/>
<path d="M111.778 48.1047C111.295 48.2111 110.931 48.4157 110.559 48.7921C110.019 49.3404 109.765 49.9623 109.679 50.9443C109.597 51.8772 109.728 52.7651 110.039 53.387C110.518 54.3404 111.336 54.8437 112.425 54.8437C113.505 54.8437 114.323 54.3527 114.773 53.4361C115.064 52.8428 115.133 52.5319 115.154 51.6399C115.182 50.5883 115.096 50.1178 114.765 49.4304C114.569 49.0294 114.078 48.5261 113.693 48.3338C113.137 48.0556 112.396 47.9697 111.778 48.1047ZM113.01 49.1358C113.415 49.3158 113.726 49.7414 113.885 50.3306C113.992 50.7193 113.992 52.2373 113.885 52.6178C113.73 53.1743 113.472 53.5261 113.087 53.7144C112.879 53.8166 112.813 53.8289 112.425 53.8289C112.056 53.8289 111.966 53.8166 111.799 53.7307C111.373 53.522 111.054 53.0515 110.923 52.45C110.833 52.0327 110.833 50.8707 110.923 50.4574C111.087 49.7168 111.471 49.2299 112.015 49.0744C112.269 49.0008 112.776 49.0335 113.01 49.1358Z" fill="white"/>
<path d="M100.642 51.4311V54.7494H101.235H101.828V53.481V52.2085L102.45 52.2208L103.068 52.233L103.723 53.4933L104.377 54.7494H105.003C105.482 54.7494 105.633 54.7371 105.633 54.6962C105.633 54.6717 105.306 54.0375 104.905 53.2969L104.173 51.9466L104.402 51.8239C105.224 51.382 105.572 50.4123 105.261 49.4098C105.081 48.8247 104.561 48.391 103.804 48.2028C103.678 48.17 103.084 48.1455 102.127 48.1332L100.642 48.1128V51.4311ZM103.489 49.1643C103.939 49.2952 104.177 49.6512 104.177 50.1872C104.177 50.5514 104.054 50.8255 103.8 51.0137C103.543 51.2101 103.395 51.2388 102.577 51.2592L101.828 51.2797V50.1913V49.1029H102.556C103.08 49.1029 103.342 49.1193 103.489 49.1643Z" fill="white"/>
<path d="M119.601 48.1784C119.589 48.2111 119.585 49.3118 119.593 50.6252C119.609 52.8797 119.618 53.027 119.695 53.2848C119.92 54.0294 120.501 54.5613 121.324 54.77C121.7 54.8682 122.482 54.8682 122.871 54.7782C123.66 54.5859 124.241 54.0703 124.483 53.3461L124.593 53.0106L124.597 50.5761V48.1415H124.004H123.411L123.39 50.5761C123.37 53.0106 123.37 53.0106 123.276 53.2152C123.222 53.3257 123.124 53.4771 123.055 53.5507C122.625 53.9967 121.561 53.9885 121.132 53.5343C121.07 53.473 120.98 53.3257 120.927 53.2152L120.833 53.0106L120.821 50.5638L120.808 48.1211H120.215C119.74 48.1211 119.618 48.1334 119.601 48.1784Z" fill="white"/>
<path d="M129.2 51.431V54.7493H129.793H130.387V53.5259V52.3025L131.442 52.2861C132.469 52.2698 132.502 52.2698 132.821 52.1552C133.32 51.9834 133.623 51.7665 133.869 51.4064C134.131 51.0259 134.253 50.3426 134.155 49.8189C134.012 49.0578 133.435 48.4604 132.617 48.219C132.408 48.1577 132.142 48.1454 130.788 48.1331L129.2 48.1167V51.431ZM132.42 49.2338C132.756 49.4138 132.965 49.7411 132.997 50.1503C133.034 50.6454 132.813 51.0545 132.396 51.2469C132.224 51.3246 132.118 51.3328 131.299 51.3451L130.387 51.3614V50.228V49.0987L131.299 49.111C132.199 49.1233 132.212 49.1233 132.42 49.2338Z" fill="white"/>
<path d="M47.04 52.028V52.3758L67.2814 52.3676L87.5229 52.3553L87.5188 52.0771C87.5147 51.9257 87.5106 51.7743 87.5106 51.7416C87.5065 51.6884 85.2274 51.6802 67.2733 51.6802H47.04V52.028Z" fill="white"/>
</g>
</svg>
