<svg width="184" height="64" viewBox="0 0 184 64" fill="none" xmlns="http://www.w3.org/2000/svg">
<path fill-rule="evenodd" clip-rule="evenodd" d="M21.4425 12.0998C19.5596 12.3859 17.7871 13.9585 17.1959 15.868C17.0342 16.3904 17.0234 17.2946 17.0234 30.4932V44.5616L17.2389 45.2447C17.7888 46.9917 19.3166 48.408 21.1024 48.826C22.1929 49.0812 49.6394 49.0081 50.2865 48.7482C51.9876 48.0644 53.0501 47.0252 53.7076 45.4006L53.929 44.8525L53.9557 30.8819C53.9854 15.3104 54.0146 16.0596 53.3275 14.8319C52.6743 13.6647 51.7038 12.8249 50.4314 12.3253L49.7529 12.0586L35.8162 12.0461C28.151 12.0392 21.6829 12.0633 21.4425 12.0998ZM88.6954 13.0019C88.6696 13.0702 88.6593 16.7499 88.673 21.1788L88.6984 29.232H90.0581H91.4177L91.4465 28.6254C91.4809 27.9011 91.4732 27.9029 92.1466 28.4617C96.0045 31.6638 101.801 27.7654 100.992 22.513C100.621 20.0984 99.4119 18.6121 96.9148 17.4991C96.7837 17.4407 96.0617 17.3951 95.2636 17.3951H93.8455L93.1657 17.7551C92.792 17.9531 92.3156 18.271 92.1074 18.4617C91.5123 19.0064 91.5196 19.0361 91.4663 15.8345L91.4177 12.9319L90.0804 12.9048C89.0639 12.8846 88.7315 12.9078 88.6954 13.0019ZM65.4457 13.4078C65.2105 13.6909 65.3572 24.9388 65.6057 25.6738C66.4532 28.1808 68.5456 29.5713 71.4705 29.5713C74.6967 29.5713 76.8708 27.9295 77.4698 25.0411C77.7033 23.9177 77.794 13.8683 77.5747 13.4594C77.426 13.1819 74.978 13.1729 74.7281 13.4491C74.5824 13.6097 74.5673 14.1338 74.5673 18.9708C74.5673 25.0187 74.5682 25.0106 73.7727 25.8053C73.0963 26.481 72.7243 26.6103 71.4593 26.6103C69.922 26.6103 69.1846 26.2035 68.6307 25.0497L68.4028 24.5745L68.3736 19.0442C68.3474 14.0316 68.3297 13.5028 68.184 13.3928C67.9436 13.2115 65.5979 13.2244 65.4457 13.4078ZM84.2294 17.6275C83.9082 17.7886 83.4563 18.1189 83.2254 18.3612C82.69 18.9222 82.6281 18.9145 82.6281 18.2878C82.6281 18.0047 82.5756 17.7212 82.5116 17.6572C82.3895 17.5347 80.356 17.487 80.0627 17.5996C79.9247 17.6524 79.9088 18.2603 79.9088 23.4718V29.2857L81.293 29.2586L82.6767 29.232L82.7313 25.7391L82.7859 22.2463L83.0461 21.6874C83.6812 20.3244 84.7484 19.8557 86.6946 20.0847C87.0111 20.122 87.0623 19.9837 87.1986 18.7234C87.3474 17.347 87.3989 17.4033 85.9499 17.3646C84.8499 17.335 84.7949 17.3436 84.2294 17.6275ZM106.768 17.451C101.737 18.6894 100.886 26.2726 105.484 28.8849C107.385 29.9652 110.096 29.7406 111.537 28.3836C111.925 28.0189 112.056 28.0988 112.056 28.6993C112.056 29.3213 112.099 29.3385 113.529 29.2805L114.726 29.232V23.4104V17.5889L113.585 17.5618C112.145 17.5274 112.056 17.5687 112.056 18.2714C112.056 18.9102 112.003 18.9188 111.35 18.3887C110.235 17.4836 108.27 17.0811 106.768 17.451ZM122.085 17.5313C121.488 17.7521 121.094 18.0081 120.533 18.5425C120.07 18.9832 120.04 18.9596 119.998 18.1228L119.971 17.5889L118.698 17.5622C117.705 17.5412 117.401 17.5648 117.314 17.67C117.231 17.7693 117.208 19.3119 117.227 23.5182L117.252 29.232L118.624 29.2586C120.29 29.2912 120.094 29.7908 120.114 25.4565L120.129 22.0689L120.399 21.4752C121.35 19.3793 124.256 19.3114 125.185 21.3626C125.404 21.8455 125.411 21.9524 125.458 25.5449L125.507 29.232L126.891 29.2586L128.275 29.2857L128.273 25.2322C128.27 20.8961 128.251 20.6908 127.769 19.6809C126.866 17.7908 124.158 16.7667 122.085 17.5313ZM95.6193 20.0073C99.0945 20.9314 99.0055 26.0334 95.4993 26.9136C93.7371 27.3556 91.9858 26.2417 91.5179 24.3808C90.8424 21.6943 93.062 19.3273 95.6193 20.0073ZM109.719 20.0537C113.025 21.0817 112.921 25.8869 109.571 26.902C107.455 27.5433 105.34 25.8564 105.314 23.5075C105.287 20.9692 107.381 19.3269 109.719 20.0537ZM25.7834 24.4092C25.8698 24.4637 25.9072 25.4947 25.9292 28.4098C25.958 32.2506 25.9631 32.3442 26.1704 32.6763C27.2123 34.3477 29.7996 34.3464 30.7176 32.6737L31.0088 32.1427L31.0328 28.3161C31.0509 25.3744 31.0849 24.4719 31.1782 24.4126C31.4104 24.2653 33.9345 24.3168 34.063 24.4714C34.1495 24.5758 34.1701 25.6412 34.1452 28.716L34.1116 32.8219L33.8579 33.48C33.0237 35.645 31.4082 36.5776 28.4838 36.5828C25.3207 36.5888 23.4463 35.377 22.8912 32.9671C22.7102 32.1827 22.6496 24.5243 22.8233 24.4143C22.9807 24.3142 25.6273 24.3095 25.7834 24.4092ZM44.5404 24.52C46.054 24.913 47.3363 25.868 48.0363 27.1249C48.2363 27.4832 48.1451 27.5708 46.9635 28.1533C45.6485 28.802 45.6907 28.7977 45.3875 28.3178C44.657 27.1619 43.0866 26.7353 41.8009 27.3431C38.5819 28.8651 39.6982 34.1201 43.1975 33.9186C44.1797 33.8619 44.706 33.5444 45.5526 32.4963C45.747 32.2561 45.6679 32.2338 47.2094 32.9645C48.226 33.4465 48.2604 33.5071 47.8691 34.1166C45.1429 38.3604 38.1635 37.0029 36.9716 31.9971C35.8923 27.4643 40.0512 23.3554 44.5404 24.52ZM71.7508 32.3837C70.9777 32.4838 70.2377 32.6891 69.6812 32.9585C69.4503 33.0702 69.2284 33.1612 69.1876 33.1612C68.9795 33.1612 67.6405 34.1415 67.0819 34.703C65.5644 36.228 64.6627 38.439 64.6614 40.6384C64.661 41.3807 65.0106 43.254 65.2376 43.727C65.2785 43.8125 65.3937 44.0569 65.4935 44.2704C66.2696 45.9341 68.7589 48.1984 69.8132 48.1997C69.8962 48.1997 70.0054 48.2405 70.0562 48.2903C70.2063 48.4372 71.369 48.6714 72.2961 48.7409C74.8731 48.9342 77.3662 48.0124 79.1563 46.2039C79.9574 45.3946 79.96 45.3327 79.2208 44.7154C78.4782 44.096 78.5457 44.0861 77.6521 44.9461C74.689 47.7963 69.7036 47.3204 67.689 43.9946C66.5999 42.1964 66.5108 39.2405 67.4943 37.5171C68.6965 35.4096 70.586 34.2975 72.9639 34.2979C74.0844 34.2983 75.1289 34.4822 75.3878 34.7245C75.4385 34.7717 75.5348 34.8108 75.6015 34.8108C75.887 34.8108 76.9672 35.5621 77.6435 36.2314C78.4863 37.0648 78.4356 37.06 79.2169 36.3757C79.9703 35.7159 79.9737 35.7387 78.9619 34.7275C77.094 32.861 74.5239 32.0255 71.7508 32.3837ZM86.3674 36.7525C82.0502 37.454 79.8447 42.132 82.0571 45.895C84.8589 50.6603 92.3865 49.3015 93.2074 43.8825C93.2719 43.4555 93.3407 43.0259 93.36 42.9276C93.5011 42.2097 92.8827 40.1491 92.2554 39.247C90.9757 37.4063 88.5832 36.3925 86.3674 36.7525ZM99.4617 36.749C98.7737 36.8959 98.0393 37.304 97.4352 37.8754L96.8564 38.4226L96.828 37.7894C96.7923 36.9969 96.742 36.9604 95.7883 37.0321L95.0112 37.091L94.9627 42.7007C94.9068 49.1568 94.8164 48.588 95.8988 48.588C96.9755 48.588 96.8916 48.9119 96.9277 44.6102L96.9587 40.8746L97.221 40.3188C98.3618 37.902 101.707 37.8857 102.642 40.2926C102.862 40.8592 102.869 40.9739 102.903 44.6102C102.944 48.9145 102.859 48.588 103.945 48.588C104.935 48.588 104.868 48.8496 104.872 44.9547C104.875 42.5354 104.912 41.3858 105.002 40.9717C105.64 38.0377 109.516 37.5721 110.607 40.2982C110.834 40.8648 110.839 40.9395 110.87 44.6566C110.907 48.9334 110.823 48.5846 111.819 48.5867C112.938 48.5889 112.853 48.9514 112.808 44.4122C112.766 40.1594 112.754 40.0554 112.164 38.9055C110.829 36.3044 106.812 35.8968 104.557 38.134C103.997 38.6898 103.994 38.6911 103.825 38.4884C102.805 37.2697 101.911 36.7739 100.608 36.7031C100.2 36.6812 99.6845 36.7018 99.4617 36.749ZM120.263 36.722C119.24 36.8276 118.281 37.2628 117.381 38.0287C116.689 38.6172 116.718 38.6267 116.718 37.8161C116.718 37.0244 116.588 36.9118 115.763 36.9836C115.513 37.0051 115.189 37.027 115.041 37.0325L114.774 37.0424L114.799 45.1197L114.823 53.1969L115.69 53.2248C116.798 53.2613 116.714 53.5174 116.716 50.0838C116.717 48.4785 116.746 47.1369 116.78 47.103C116.814 47.0691 117.084 47.2615 117.379 47.5313C119.654 49.6082 123.523 49.119 125.452 46.5102C128.578 42.2832 125.35 36.1957 120.263 36.722ZM132.791 36.7409C131.405 36.935 130.005 37.7388 129.174 38.8174C129.001 39.0417 128.827 39.2689 128.786 39.3222C127.61 40.8609 127.586 43.8984 128.734 45.9685C130.388 48.9523 134.639 49.7732 137.08 47.5798C137.737 46.9896 137.793 47.0038 137.793 47.7598C137.793 48.2809 137.825 48.4042 137.98 48.4875C138.203 48.6069 139.34 48.6198 139.521 48.5051C139.642 48.4286 139.719 37.188 139.6 37.0695C139.505 36.9737 138.283 36.9483 138.049 37.0368C137.808 37.1283 137.793 37.173 137.793 37.762C137.793 38.5137 137.718 38.5859 137.346 38.1898C136.341 37.1172 134.432 36.5102 132.791 36.7409ZM146.825 36.7151C145.855 36.9041 144.889 37.4153 144.375 38.0111C144.029 38.4123 143.909 38.3174 143.937 37.6644C143.967 36.9655 143.244 36.6872 142.315 37.0399L142.066 37.1344V42.7523C142.066 49.146 141.968 48.567 143.051 48.5777C144.065 48.5876 143.993 48.875 144.028 44.7038C144.057 41.1848 144.066 41.0512 144.279 40.5207C145.292 38.0081 148.81 37.774 149.877 40.1487C150.251 40.982 150.329 41.9078 150.31 45.3233C150.29 48.8737 150.201 48.5846 151.313 48.5867C152.355 48.5884 152.29 48.8874 152.24 44.3323C152.193 40.0786 152.183 40.0056 151.527 38.8209C150.691 37.3139 148.587 36.3719 146.825 36.7151ZM153.192 37.0798C153.07 37.1726 153.083 37.2559 153.279 37.673C153.405 37.9398 153.8 38.8346 154.157 39.662C154.909 41.4043 154.993 41.5967 155.257 42.1844C155.725 43.2231 155.954 43.7459 156.343 44.6587C156.57 45.1923 156.862 45.8688 156.992 46.1627C157.122 46.4561 157.266 46.7834 157.313 46.8904C157.36 46.9969 157.535 47.3887 157.703 47.7607L158.007 48.4368L157.71 49.1937C156.88 51.3145 156.19 51.7522 154.109 51.4816C153.814 51.4434 153.482 52.7162 153.714 52.995C153.913 53.2343 154.698 53.4392 155.414 53.4392C157.211 53.4392 158.419 52.3609 159.325 49.9493C159.455 49.6009 159.673 49.0318 159.809 48.6851C160.146 47.8238 160.448 47.0274 160.764 46.1627C160.91 45.7623 161.083 45.3039 161.148 45.1437C161.213 44.9835 161.357 44.6123 161.467 44.3189C161.577 44.0255 161.782 43.48 161.922 43.1063C162.062 42.7325 162.241 42.2836 162.319 42.1084C162.397 41.9331 162.461 41.7432 162.461 41.6865C162.461 41.6298 162.523 41.4455 162.597 41.2776C162.954 40.4769 164.127 37.2319 164.094 37.1344C164.051 37.0042 162.514 36.9303 162.213 37.0446C162.104 37.0858 161.966 37.2662 161.907 37.4449C161.785 37.8139 160.97 40.0928 160.749 40.6805C160.669 40.894 160.58 41.156 160.553 41.263C160.525 41.3695 160.464 41.5443 160.417 41.6509C160.263 41.9993 159.175 45.0398 159.11 45.3022C159.027 45.6356 158.694 45.5694 158.618 45.2047C158.588 45.0647 158.528 44.8804 158.483 44.7958C158.438 44.7111 158.11 43.9255 157.755 43.0496C157.399 42.1737 157.024 41.2716 156.92 41.0456C156.816 40.8192 156.731 40.6074 156.731 40.5752C156.731 40.5426 156.669 40.3785 156.593 40.2101C156.411 39.8076 155.953 38.7306 155.566 37.7942C155.32 37.1966 155.213 37.0403 155.047 37.0317C153.892 36.9724 153.312 36.9879 153.192 37.0798ZM88.4146 38.6495C90.8953 39.3698 92.0782 42.3244 90.8639 44.7648C89.4466 47.6129 85.5499 47.7963 83.8433 45.0952C81.7758 41.8231 84.7759 37.5927 88.4146 38.6495ZM121.808 38.6443C126.168 39.9657 125.467 46.7297 120.941 47.0115C119.353 47.1107 117.847 46.2967 117.186 44.9826C116.685 43.9847 116.669 43.9156 116.675 42.7184C116.689 39.784 119.142 37.8367 121.808 38.6443ZM135.016 38.6443C138.328 39.6478 138.982 44.4233 136.077 46.389C133.838 47.9041 130.747 46.7091 130.006 44.0419C129.086 40.7256 131.895 37.6984 135.016 38.6443Z" fill="white"/>
</svg>
